<?xml version="1.0" standalone="no"?>
<!DOCTYPE svg PUBLIC "-//W3C//DTD SVG 20010904//EN"
 "http://www.w3.org/TR/2001/REC-SVG-20010904/DTD/svg10.dtd">
<svg version="1.0" xmlns="http://www.w3.org/2000/svg"
 width="95.000000pt" height="89.000000pt" viewBox="0 0 95.000000 89.000000"
 preserveAspectRatio="xMidYMid meet">
<metadata>
Created by potrace 1.15, written by Peter Selinger 2001-2017
</metadata>
<g transform="translate(0.000000,89.000000) scale(0.100000,-0.100000)"
fill="#000000" stroke="none">
<path d="M455 820 c-11 -4 -30 -18 -42 -31 -64 -69 -47 -165 36 -209 l36 -19
-30 -1 c-16 -1 -39 -5 -50 -9 -17 -7 -11 -13 39 -35 32 -14 62 -26 66 -26 4 0
34 12 66 27 48 22 55 28 39 34 -11 4 -36 8 -55 8 l-35 1 35 18 c42 21 80 75
80 114 0 97 -97 165 -185 128z"/>
<path d="M183 513 c-21 -8 -16 -43 6 -43 11 0 31 -14 45 -31 23 -27 26 -39 26
-106 0 -69 -2 -77 -29 -104 -16 -16 -37 -29 -46 -29 -10 0 -15 -7 -13 -17 2
-14 18 -20 63 -25 74 -10 147 -33 203 -65 l42 -24 0 189 0 190 -52 22 c-73 31
-214 56 -245 43z"/>
<path d="M740 509 c-67 -8 -173 -40 -196 -60 -11 -9 -14 -53 -14 -196 l0 -185
26 17 c46 30 151 64 218 71 54 6 66 10 66 25 0 10 -8 20 -18 23 -40 13 -64 52
-69 113 -7 76 14 130 57 146 22 8 30 17 28 32 -4 24 -13 25 -98 14z"/>
</g>
</svg>
