<svg height="512pt" viewBox="-18 0 512 512.00105" width="512pt" xmlns="http://www.w3.org/2000/svg"><path d="m61.59375 406h-36.203125c-14.023437 0-25.390625 11.367188-25.390625 25.390625v55.21875c0 14.023437 11.367188 25.390625 25.390625 25.390625h36.203125c14.023438 0 25.390625-11.367188 25.390625-25.390625v-55.21875c0-14.019531-11.367187-25.390625-25.390625-25.390625zm0 0" fill="#589ce0"/><path d="m49.589844 512h-24.199219c-14.023437 0-25.390625-11.367188-25.390625-25.390625v-55.21875c0-14.023437 11.367188-25.390625 25.390625-25.390625h24.199219c-14.023438 0-25.390625 11.367188-25.390625 25.390625v55.21875c0 14.023437 11.367187 25.390625 25.390625 25.390625zm0 0" fill="#357fbc"/><path d="m191.574219 344.464844h-36.203125c-14.019532 0-25.390625 11.367187-25.390625 25.390625v116.753906c0 14.023437 11.367187 25.390625 25.390625 25.390625h36.203125c14.023437 0 25.390625-11.367188 25.390625-25.390625v-116.753906c0-14.023438-11.367188-25.390625-25.390625-25.390625zm0 0" fill="#30ceb3"/><path d="m179.566406 512h-24.191406c-14.023438 0-25.398438-11.367188-25.398438-25.390625v-116.753906c0-14.023438 11.375-25.390625 25.398438-25.390625h24.191406c-14.023437 0-25.390625 11.367187-25.390625 25.390625v116.753906c0 14.023437 11.367188 25.390625 25.390625 25.390625zm0 0" fill="#1fb598"/><path d="m321.554688 269.109375h-36.203126c-14.019531 0-25.390624 11.367187-25.390624 25.390625v192.109375c0 14.023437 11.367187 25.390625 25.390624 25.390625h36.203126c14.023437 0 25.390624-11.367188 25.390624-25.390625v-192.109375c0-14.023438-11.367187-25.390625-25.390624-25.390625zm0 0" fill="#ffbf3e"/><path d="m451.535156 137.488281h-36.199218c-14.023438 0-25.390626 11.367188-25.390626 25.390625v323.730469c0 14.023437 11.367188 25.390625 25.390626 25.390625h36.199218c14.023438 0 25.390625-11.367188 25.390625-25.390625v-323.730469c0-14.023437-11.367187-25.390625-25.390625-25.390625zm0 0" fill="#f94141"/><path d="m309.550781 512h-24.199219c-14.023437 0-25.390624-11.367188-25.390624-25.390625v-192.113281c0-14.023438 11.367187-25.386719 25.390624-25.386719h24.199219c-14.023437 0-25.390625 11.363281-25.390625 25.386719v192.113281c0 14.023437 11.367188 25.390625 25.390625 25.390625zm0 0" fill="#e8a328"/><path d="m439.527344 512h-24.1875c-14.023438 0-25.402344-11.367188-25.402344-25.390625v-323.730469c0-14.023437 11.378906-25.390625 25.402344-25.390625h24.1875c-14.023438 0-25.390625 11.367188-25.390625 25.390625v323.730469c0 14.023437 11.367187 25.390625 25.390625 25.390625zm0 0" fill="#e22b2b"/><path d="m53.601562 275.183594c185.039063-36.375 294.953126-200.0625 294.953126-200.0625l21.351562 21.351562 20.558594-96.472656-96.472656 18.976562 23.722656 23.722657c-98.050782 83.820312-268.855469 107.546875-268.855469 107.546875l63.429687 45.554687zm0 0" fill="#ff8040"/></svg>